# xmcd
#
# Track frame offsets:
#	150
#	13412
#	45507
#	59032
#	101060
#	115042
#	125215
#	152755
#
# Disc length: 2378
#
# Revision: 1
# Processed by: cddbd v1.5.1PL0 Copyright (c) Steve Scherf et al.
# Submitted via: CDex 1.50
# Normalized: r0:TDELIM( - )
#
DISCID=70094808
DTITLE=Various Artist - The Essential Guide to Jazz on CD
DYEAR=1995
DGENRE=Jazz
TTITLE0=Duke Ellington - Take the 'A' Train
TTITLE1=John Coltrane - Naima
TTITLE2=Coleman Hawkins - Indian Summer
TTITLE3=Wes Montgomery - 'Round Midnight
TTITLE4=Count Basie and His Orchestra - Jumpin' At The Woodside
TTITLE5=Lionel Hampton and His Orchestra - Hot Mallets
TTITLE6=Charlie Parker - Star Eyes
TTITLE7=Miles Davies - Out of the Blue
EXTD=YEAR: 1995
EXTT0=
EXTT1=
EXTT2=
EXTT3=
EXTT4=
EXTT5=
EXTT6=
EXTT7=
PLAYORDER=
